<mxfile host="app.diagrams.net" modified="2024-04-29T01:35:21.859Z" agent="Mozilla/5.0 (Windows NT 10.0; Win64; x64) AppleWebKit/537.36 (KHTML, like Gecko) Chrome/122.0.6261.854 YaBrowser/24.4.2.854 (beta) Yowser/2.5 Safari/537.36" etag="SUcX1ZNYW-F-GbT3mSDq" version="24.3.1" type="github">
  <diagram name="Страница — 1" id="xWEY1PyqiTFkCsJDxerP">
    <mxGraphModel dx="1066" dy="611" grid="1" gridSize="10" guides="1" tooltips="1" connect="1" arrows="1" fold="1" page="1" pageScale="1" pageWidth="827" pageHeight="1169" math="0" shadow="0">
      <root>
        <mxCell id="0" />
        <mxCell id="1" parent="0" />
        <mxCell id="rntemIB3Wk2hQ3qx8ugr-3" value="" style="edgeStyle=orthogonalEdgeStyle;rounded=0;orthogonalLoop=1;jettySize=auto;html=1;" edge="1" parent="1" source="rntemIB3Wk2hQ3qx8ugr-1" target="rntemIB3Wk2hQ3qx8ugr-2">
          <mxGeometry relative="1" as="geometry" />
        </mxCell>
        <mxCell id="rntemIB3Wk2hQ3qx8ugr-1" value="Начало" style="ellipse;whiteSpace=wrap;html=1;" vertex="1" parent="1">
          <mxGeometry x="354" width="120" height="40" as="geometry" />
        </mxCell>
        <mxCell id="rntemIB3Wk2hQ3qx8ugr-2" value="&lt;div&gt;ввод n&lt;/div&gt;&lt;div&gt;&amp;nbsp; &amp;nbsp; инициализация input_array&lt;/div&gt;&lt;div&gt;&amp;nbsp; &amp;nbsp; i = 1&lt;/div&gt;" style="shape=parallelogram;perimeter=parallelogramPerimeter;whiteSpace=wrap;html=1;fixedSize=1;" vertex="1" parent="1">
          <mxGeometry x="302" y="70" width="224" height="80" as="geometry" />
        </mxCell>
      </root>
    </mxGraphModel>
  </diagram>
</mxfile>
